<?xml version="1.0" standalone="no"?>
<!DOCTYPE svg PUBLIC "-//W3C//DTD SVG 20010904//EN"
 "http://www.w3.org/TR/2001/REC-SVG-20010904/DTD/svg10.dtd">
<svg version="1.0" xmlns="http://www.w3.org/2000/svg"
 width="500.000000pt" height="500.000000pt" viewBox="0 0 500.000000 500.000000"
 preserveAspectRatio="xMidYMid meet">
<metadata>
Created by potrace 1.11, written by Peter Selinger 2001-2013
</metadata>
<g transform="translate(0.000000,500.000000) scale(0.100000,-0.100000)"
fill="#000000" stroke="none">
<path d="M1379 4346 c-226 -61 -329 -325 -203 -523 19 -29 39 -53 44 -53 6 0
8 -4 5 -10 -3 -5 1 -10 9 -10 9 0 16 -4 16 -9 0 -4 28 -23 63 -42 l62 -34 535
0 535 0 56 26 c70 33 110 68 153 133 127 195 25 462 -200 521 -48 12 -142 15
-544 14 -351 0 -498 -4 -531 -13z"/>
<path d="M3405 4346 c-90 -25 -172 -93 -215 -176 -28 -56 -32 -72 -36 -154 -3
-81 24 -169 68 -217 15 -16 28 -34 28 -40 0 -5 7 -9 15 -9 8 0 15 -4 15 -10 0
-5 32 -25 71 -44 65 -31 79 -34 148 -32 95 3 146 19 208 65 175 132 191 379
34 531 -26 25 -60 51 -76 59 -17 7 -39 18 -49 23 -28 15 -164 17 -211 4z"/>
<path d="M1379 2847 c-103 -29 -181 -96 -228 -197 -21 -45 -26 -70 -26 -140 0
-73 4 -94 29 -147 16 -35 32 -63 36 -63 3 0 13 -11 20 -25 7 -14 19 -25 27
-25 7 0 13 -4 13 -9 0 -6 30 -25 67 -43 60 -29 76 -33 153 -33 71 0 94 4 140
26 72 34 116 72 155 134 141 221 -11 517 -272 531 -38 2 -89 -2 -114 -9z"/>
<path d="M2503 2846 c-310 -98 -340 -516 -47 -653 l59 -28 530 0 530 0 57 27
c169 79 245 258 185 438 -17 52 -33 76 -82 125 -104 104 -77 100 -675 102
-403 1 -524 -1 -557 -11z"/>
<path d="M1375 1346 c-126 -40 -210 -126 -241 -247 -25 -99 -12 -191 41 -274
39 -62 83 -100 155 -134 l55 -26 530 0 530 0 55 25 c30 13 66 35 80 47 14 13
28 23 32 23 5 0 8 7 8 15 0 8 4 15 9 15 6 0 25 30 43 67 30 61 33 77 33 153 0
72 -4 94 -28 144 -15 32 -46 77 -70 100 -108 106 -109 106 -702 105 -366 0
-500 -4 -530 -13z"/>
<path d="M3386 1344 c-27 -8 -61 -23 -75 -32 -32 -20 -111 -96 -111 -107 0 -5
-7 -16 -15 -25 -8 -9 -22 -45 -31 -80 -43 -169 36 -334 195 -409 47 -22 70
-26 141 -26 76 0 93 4 152 33 57 28 98 64 147 128 4 5 17 35 29 66 23 62 24
176 2 238 -18 48 -63 112 -102 145 -85 72 -229 102 -332 69z"/>
</g>
</svg>
